<svg xmlns="http://www.w3.org/2000/svg" width="360" height="69.687" fill="none" viewBox="0 0 2335 452"><path fill="#fff" d="M320.279 18.71h183.81c18.42 0 37.24 1.3 56.47 3.9 19.22 2.61 36.64 7.61 52.26 15.02 15.62 7.41 28.33 17.63 38.14 30.63 9.81 13.02 14.72 29.94 14.72 50.76 0 13.22-2.4 25.03-7.21 35.44-4.8 10.42-11.11 19.43-18.92 27.03-7.81 7.61-16.92 14.02-27.33 19.22-10.42 5.21-21.02 9.41-31.84 12.61 14.42 3.21 28.53 7.51 42.35 12.92s26.13 12.31 36.94 20.72c10.81 8.41 19.52 18.42 26.13 30.03 6.61 11.62 9.91 25.44 9.91 41.45 0 24.43-5.41 44.45-16.22 60.07-10.81 15.62-25.14 27.93-42.95 36.94-17.82 9.01-38.25 15.22-61.27 18.62-23.03 3.41-46.76 5.11-71.18 5.11h-203.81c-4.41 0-6.51-2.4-6.31-7.21.2-4.81 2.3-8.41 6.31-10.81 6.01-3.6 30.61-11.11 33.82-22.53 3.2-11.41 5.6-25.73 7.21-42.95 1.6-17.21 2.5-36.54 2.7-57.97.2-21.42.3-43.94.3-67.58v-67.88c0-21.63-.6-41.05-1.8-58.27-1.2-17.21-3.51-31.73-6.91-43.55-3.41-11.81-8.51-19.72-15.32-23.73-4.01-2.4-6.11-6.01-6.31-10.81-.21-4.81 1.9-7.21 6.31-7.21v.03Zm126.15 186.22c22.42-.39 41.04-2.2 55.87-5.41 14.81-3.2 26.82-8.11 36.04-14.72 9.21-6.61 15.71-15.11 19.52-25.53 3.8-10.41 5.71-23.03 5.71-37.85 0-10.81-1.11-21.22-3.3-31.24-2.21-10-5.71-19.02-10.51-27.03-4.81-8.01-10.92-14.42-18.32-19.22-7.42-4.81-16.52-7.21-27.33-7.21-15.22 0-26.83 4.71-34.84 14.12-8.02 9.41-13.72 21.93-17.12 37.54-3.41 15.62-5.21 33.55-5.41 53.76-.21 20.23-.3 41.15-.3 62.77l-.01.02Zm0 24.03c0 23.63.09 46.96.3 69.98.2 23.03 1.9 43.55 5.11 61.57 3.2 18.02 8.8 32.64 16.82 43.85 8.01 11.22 19.82 16.82 35.44 16.82 14.42 0 27.23-3.1 38.44-9.31 11.21-6.2 20.62-14.01 28.23-23.43 7.6-9.4 13.31-19.82 17.12-31.24 3.8-11.41 5.71-22.32 5.71-32.74 0-20.42-2.81-37.14-8.41-50.16-5.61-13.01-14.32-23.22-26.13-30.64-11.82-7.4-27.03-12.61-45.65-15.62-18.62-3-40.95-4.7-66.98-5.11V228.96ZM722.749 290.23c0-24.03 4.3-46.05 12.91-66.08 8.61-20.02 20.02-37.24 34.24-51.66 14.21-14.42 30.64-25.53 49.26-33.34 18.62-7.81 37.74-11.71 57.37-11.71 25.23 0 46.75 4.61 64.57 13.82 17.81 9.22 32.53 20.33 44.15 33.34 11.61 13.02 20.621 26.64 27.031 40.85 6.4 14.22 11.01 26.53 13.82 36.94 2.4 5.61 1.89 10.62-1.5 15.02-3.41 4.41-8.71 6.61-15.92 6.61H811.049c4.4 15.22 10.11 30.44 17.12 45.65 7 15.22 15.32 28.94 24.93 41.15 9.61 12.22 20.52 22.13 32.74 29.73 12.21 7.61 25.53 11.41 39.95 11.41 11.61 0 22.02-1.8 31.24-5.41 9.21-3.6 17.21-7.81 24.03-12.61 6.8-4.81 12.41-9.71 16.82-14.72 4.401-5 7.601-9.1 9.611-12.31 3.6-5.2 7.6-7.81 12.01-7.81 3.2 0 5.6 1.5 7.21 4.5 1.6 3 1.2 7.31-1.2 12.91-4.01 8.41-10.21 17.63-18.62 27.63-8.411 10.01-18.621 19.22-30.641 27.63s-25.63 15.42-40.85 21.03c-15.22 5.6-31.84 8.41-49.86 8.41-20.83 0-40.95-3.9-60.37-11.71-19.43-7.81-36.75-18.82-51.96-33.04-15.22-14.21-27.44-31.24-36.64-51.06-9.22-19.82-13.82-41.54-13.82-65.18v.01Zm222.26-34.24c-3.21-8.41-7.61-18.62-13.22-30.64-5.61-12.01-12.31-23.52-20.12-34.54-7.81-11.01-16.82-20.32-27.03-27.93-10.21-7.6-21.53-11.41-33.94-11.41-15.62 0-28.04 4.91-37.24 14.72-9.22 9.82-13.82 23.13-13.82 39.95 0 13.22 2.2 29.84 6.61 49.86h138.76v-.01ZM1036.14 50.55l110.53-13.82c11.21-1.2 16.82 3.81 16.82 15.02v276.63c0 11.82.69 23.93 2.1 36.34 1.4 12.42 3.8 23.83 7.21 34.24 3.4 10.42 8.71 17.82 15.92 22.22 4 2.4 6.1 6.01 6.31 10.81.2 4.81-1.9 7.21-6.31 7.21h-152.58c-4.41 0-6.51-2.4-6.31-7.21.2-4.81 2.3-8.41 6.31-10.81 6.01-3.6 10.71-8.8 14.12-15.62 3.4-6.81 5.9-14.31 7.51-22.53 1.6-8.2 2.6-16.82 3-25.83.39-9.01.6-17.72.6-26.13V158.68c0-9.21-.3-18.41-.9-27.63-.6-9.21-1.8-17.92-3.61-26.13-1.8-8.2-4.31-15.52-7.51-21.93-3.21-6.4-7.61-11.21-13.22-14.42-4.01-2.4-6.11-5.8-6.31-10.21-.21-4.4 1.89-7 6.31-7.81h.01Zm176.61-28.23L1323.28 8.5c11.21-1.2 16.82 3.81 16.82 15.02v304.86c0 11.82.69 23.93 2.1 36.34 1.4 12.42 3.8 23.83 7.21 34.24 3.4 10.42 8.71 17.82 15.92 22.22 4 2.4 6.1 6.01 6.31 10.81.2 4.81-1.9 7.21-6.31 7.21h-152.58c-4.41 0-6.51-2.4-6.31-7.21.2-4.81 2.3-8.41 6.31-10.81 6.01-3.6 10.71-8.8 14.12-15.62 3.4-6.81 5.9-14.31 7.51-22.53 1.6-8.2 2.6-16.82 3-25.83.39-9.01.6-17.72.6-26.13V130.44c0-9.21-.3-18.41-.9-27.63-.6-9.21-1.8-17.92-3.61-26.13-1.8-8.2-4.31-15.52-7.51-21.93-3.21-6.4-7.61-11.21-13.22-14.42-4.01-2.4-6.11-5.8-6.31-10.21-.21-4.4 1.9-7 6.31-7.81l.01.01ZM1535.14 127.44c22.02 0 42.85 4.2 62.47 12.61 19.61 8.41 36.74 20.03 51.36 34.84 14.61 14.82 26.22 31.94 34.84 51.36 8.61 19.43 12.91 40.35 12.91 62.77s-4.2 42.86-12.61 62.47c-8.41 19.63-20.03 36.85-34.84 51.66-14.82 14.82-31.94 26.54-51.36 35.14-19.43 8.61-40.35 12.92-62.77 12.92s-42.95-4.31-62.77-12.92-37.05-20.32-51.66-35.14c-14.62-14.81-26.23-32.03-34.84-51.66-8.61-19.62-12.91-40.44-12.91-62.47s4.3-43.34 12.91-62.77c8.61-19.42 20.22-36.54 34.84-51.36 14.61-14.81 31.84-26.43 51.66-34.84 19.82-8.41 40.75-12.61 62.77-12.61Zm-54.66 187.42c7.21 14.42 14.91 28.14 23.13 41.15 8.2 13.02 16.61 24.43 25.23 34.24 8.61 9.82 17.42 17.63 26.43 23.43 9.01 5.81 17.92 8.71 26.73 8.71 5.6 0 10.81-1.2 15.62-3.6 9.21-4.4 15.41-11.91 18.62-22.53 3.2-10.61 4.1-22.92 2.7-36.94-1.41-14.01-4.8-29.33-10.21-45.95-5.41-16.61-12.12-33.34-20.12-50.16-6.81-14.42-14.32-28.13-22.53-41.15-8.21-13.01-16.62-24.42-25.23-34.24-8.62-9.81-17.42-17.62-26.43-23.43-9.01-5.8-17.72-8.71-26.13-8.71-5.61 0-10.81 1.2-15.62 3.61-9.22 4.41-15.52 11.82-18.92 22.22-3.41 10.42-4.41 22.73-3 36.94 1.4 14.22 4.81 29.64 10.21 46.26 5.41 16.62 11.91 33.34 19.52 50.16v-.01ZM201.869 38.38c0 2.49-2.02 4.52-4.52 4.52-2.5 0-4.52-2.02-4.52-4.52 0-2.5 2.02-4.52 4.52-4.52 2.5 0 4.52 2.02 4.52 4.52Z"/><path fill="#4B1146" d="M233.679 16.99h-.06c-230.75 0-214.91 194.28-214.91 194.28h429.88s15.84-194.28-214.91-194.28Z"/><path fill="#4B1146" d="m7.129 227.55-6.95-11.44c-.28-3.43-4.61-88.25 52.34-150.03C92.929 22.23 153.859 0 233.609 0s140.74 22.23 181.16 66.08c56.94 61.78 52.15 143.14 51.87 146.57l-2.4 15.61-457.11-.71Z"/><path fill="#AB285B" d="M233.679 16.99h-.06c-230.75 0-214.91 194.28-214.91 194.28h429.88s15.84-194.28-214.91-194.28Z"/><path fill="#4B1146" d="M449.429 213.66c0 36.97-96.61 66.93-215.79 66.93-119.18 0-215.79-29.97-215.79-66.93 0-36.96 96.61-66.93 215.79-66.93 119.18 0 215.79 29.97 215.79 66.93Z"/><path fill="#4B1146" d="M431.859 213.66c0 .99-.08 1.97-.21 2.96l.63-4.67c-.3 2.01-.85 3.94-1.63 5.81l1.77-4.2c-1.04 2.43-2.42 4.67-4.01 6.77l2.75-3.56c-2.76 3.57-6.08 6.64-9.65 9.41l3.56-2.75c-8.06 6.18-17.23 10.81-26.56 14.75l4.2-1.77c-27.99 11.71-58.33 17.74-88.29 21.77l4.67-.63c-56.46 7.52-114.43 7.52-170.89 0l4.67.63c-29.95-4.03-60.29-10.06-88.29-21.77l4.2 1.77c-9.33-3.94-18.5-8.57-26.56-14.75l3.56 2.75c-3.56-2.76-6.88-5.84-9.65-9.41l2.75 3.56c-1.6-2.1-2.97-4.35-4.01-6.77l1.77 4.2c-.78-1.87-1.33-3.81-1.63-5.81l.63 4.67c-.26-1.97-.26-3.94 0-5.91l-.63 4.67c.3-2.01.85-3.94 1.63-5.81l-1.77 4.2c1.04-2.43 2.42-4.67 4.01-6.77l-2.75 3.56c2.76-3.57 6.08-6.64 9.65-9.41-1.18.92-2.37 1.83-3.56 2.75 8.07-6.18 17.23-10.81 26.56-14.75l-4.2 1.77c27.99-11.71 58.33-17.74 88.29-21.77l-4.67.63c56.46-7.51 114.43-7.51 170.89 0l-4.67-.63c29.95 4.03 60.29 10.06 88.29 21.77l-4.2-1.77c9.33 3.94 18.5 8.57 26.56 14.75-1.18-.92-2.37-1.83-3.56-2.75 3.56 2.76 6.88 5.84 9.65 9.41l-2.75-3.56c1.6 2.1 2.97 4.35 4.01 6.77l-1.77-4.2c.78 1.87 1.33 3.81 1.63 5.81l-.63-4.67c.13.98.2 1.97.21 2.96.07 9.58 7.94 17.57 17.57 17.57 9.63 0 17.64-7.99 17.57-17.57-.13-18.29-12.61-31.91-26.64-41.93-6.82-4.87-14.36-8.7-22.03-12.05a269.71 269.71 0 0 0-32.87-11.91c-26.02-7.56-52.95-11.82-79.84-14.79-30.48-3.37-61.24-4.38-91.89-3.53-30.25.84-60.5 3.71-90.32 8.89-22.63 3.92-45.27 9.33-66.58 18.02-9.29 3.79-18.48 7.89-26.93 13.35-6.7 4.33-13.44 9.4-18.42 15.72-2.59 3.28-5.15 6.49-6.85 10.32-2.46 5.55-3.5 9.51-4.23 15.56-.93 7.77 1.77 16.15 5.51 22.86 8.23 14.77 24.1 24.69 38.98 31.67 21.07 9.88 49.3 11.37 72.05 15.99 59.04 12 114.85 19.04 174.78 13.89 27.9-2.39 38.68-5.18 65.85-12.04 20.43-5.16 58.38-13.23 76.58-24.05 16.61-9.88 32.68-25.26 32.83-45.96.07-9.58-8.04-17.57-17.57-17.57-9.53 0-17.5 7.99-17.57 17.57l.02-.02Z"/><path fill="#A08787" d="M449.429 213.66c0 36.97-96.61 66.93-215.79 66.93-119.18 0-215.79-29.97-215.79-66.93 0-36.96 96.61-66.93 215.79-66.93 119.18 0 215.79 29.97 215.79 66.93Z"/><path fill="#4B1146" d="M227.909 141.37v44.17c0 6.47 10.04 6.47 10.04 0v-44.17c0-6.47-10.04-6.47-10.04 0ZM227.909 243.77v44.17c0 6.47 10.04 6.47 10.04 0v-44.17c0-6.47-10.04-6.47-10.04 0ZM141.249 187.39c-.55-.14-1.08-.32-1.61-.51-.28-.1-.56-.21-.84-.32-1.12-.44 1.06.47-.15-.07-.83-.37-1.64-.79-2.45-1.22-5-2.68-9.14-6.5-12.71-10.88-3.81-4.68-7.2-10.79-9.25-16.09-.61-1.58-1.13-3.2-1.55-4.84-.18-.69-.63-3.68-.26-.79-.35-2.71-2.02-5.02-5.02-5.02-2.47 0-5.37 2.3-5.02 5.02 1.26 9.83 6.79 19.36 12.66 27.11 5.7 7.52 14.09 14.95 23.53 17.3 6.28 1.57 8.95-8.12 2.67-9.68v-.01ZM149.139 236.63c.2.62.34 1.26.47 1.9.07.35.38 2.47.25 1.37.13 1.04.19 2.09.24 3.13.27 6.36-1.16 12.69-3.67 18.52-1.29 3.01-2.8 5.93-4.46 8.75-.67 1.14-1.39 2.25-2.13 3.35-.33.48-.66.95-1.01 1.43.02-.03-1.05 1.39-.47.64-1.26 1.61-2.63 3.27-4.23 4.57-2.12 1.74-1.79 5.31 0 7.1 2.08 2.08 4.98 1.73 7.1 0 1.72-1.41 3.17-3.21 4.53-4.96 4.26-5.47 7.54-11.48 10.2-17.87 3.81-9.14 6.01-20.87 2.84-30.6-2-6.13-11.69-3.51-9.68 2.67h.02ZM193.569 240.39c.2.62.34 1.26.47 1.9.07.35.38 2.47.25 1.37.13 1.04.19 2.09.24 3.13.27 6.36-1.16 12.69-3.66 18.52-1.29 3.01-2.8 5.93-4.46 8.75-.67 1.14-1.39 2.25-2.13 3.34-.33.48-.66.96-1 1.43.02-.03-1.05 1.39-.47.64-1.26 1.61-2.63 3.26-4.22 4.57-2.12 1.74-1.79 5.31 0 7.1 2.08 2.08 4.98 1.73 7.1 0 1.72-1.41 3.17-3.21 4.53-4.96 4.26-5.47 7.54-11.48 10.2-17.87 3.81-9.14 6.01-20.87 2.84-30.6-2-6.13-11.69-3.5-9.68 2.67l-.01.01ZM120.479 229.63c-19.84 1.04-62.97-8.21-79.19-18.85-6.94-4.55-12.56-8.78-17.07-15.63.91 1.39-.07-.16-.27-.5-.22-.39-.42-.8-.62-1.21-.36-.75-1.02-2.8-.47-1-.25-.83-.3-2.88-.26-.4-.04-2.73-1.7-5.17-4.62-5.39-2.54-.2-5.43 1.88-5.39 4.62.04 2.88 1.11 5.62 2.53 8.09 3.85 6.71 9.81 11.99 15.96 16.55 18.23 13.52 57.72 25.09 89 23.62.37-.02.74 0 1.11-.03 2.73-.14 5.16-1.62 5.39-4.62.19-2.46-1.88-5.54-4.62-5.39l-1.47.15-.01-.01ZM329.929 199.17c9-2.24 17.17-9.19 22.74-16.28 6.24-7.95 12.14-17.89 13.45-28.12.35-2.72-2.55-5.02-5.02-5.02-3 0-4.67 2.31-5.02 5.02.36-2.83-.03-.17-.19.5-.37 1.57-.88 3.11-1.43 4.63-1.99 5.48-5.51 11.23-9.13 16.19-3.3 4.52-7.73 8.28-12.57 11.03-.82.47-1.67.89-2.52 1.29-.21.1-1.48.65-.22.12-.3.12-.6.24-.89.35-.61.23-1.24.45-1.87.61-6.28 1.56-3.62 11.25 2.67 9.68ZM308.459 233.96c-3.17 9.73-.96 21.46 2.84 30.6 2.49 5.97 5.48 11.71 9.42 16.85 1.6 2.09 3.26 4.29 5.31 5.97 2.11 1.73 5.02 2.08 7.1 0 1.79-1.79 2.12-5.36 0-7.1-1.48-1.21-2.73-2.72-3.93-4.2-.99-1.22.58.79-.44-.57-.34-.45-.66-.91-.99-1.37-.74-1.05-1.43-2.14-2.11-3.24-1.84-2.99-3.41-6.15-4.82-9.36-2.5-5.65-3.77-11.77-3.68-17.93.04-2.47.14-3.16.44-4.77.14-.75.3-1.5.54-2.22 2.01-6.17-7.69-8.8-9.68-2.67v.01ZM264.039 237.72c-3.17 9.73-.96 21.46 2.84 30.6 2.49 5.97 5.49 11.71 9.42 16.85 1.6 2.09 3.26 4.29 5.31 5.97 2.11 1.73 5.02 2.08 7.1 0 1.79-1.79 2.12-5.36 0-7.1-1.48-1.21-2.73-2.72-3.93-4.2-.99-1.22.58.79-.44-.57-.34-.45-.66-.91-.99-1.37-.74-1.05-1.43-2.14-2.11-3.23-1.84-2.99-3.41-6.15-4.82-9.36-2.49-5.65-3.77-11.77-3.68-17.93.04-2.47.14-3.16.44-4.77.14-.74.3-1.5.54-2.22 2.01-6.17-7.69-8.8-9.68-2.67Z"/><path fill="#FCD3BD" d="M138.969 216.65c-.25.39-.49.79-.74 1.2-.06.1-.13.21-.19.31-.23.37-.45.76-.68 1.14 2.54-.37 6.45-.56 6.45-.56 1.81-.22 3.66-.43 5.56-.63.05-.09.1-.17.16-.26.25-.41.5-.81.75-1.2.06-.09.11-.18.17-.27.29-.46.57-.9.85-1.33l.02-.03c.3-.46.59-.9.88-1.33.03-.04.06-.08.09-.13.24-.36.48-.71.71-1.05.08-.11.15-.22.23-.33.18-.26.36-.52.54-.77.09-.12.17-.24.25-.36.17-.23.33-.46.49-.68l.24-.33c.18-.25.35-.48.52-.71.07-.09.13-.18.2-.27.19-.26.38-.51.57-.75.1-.13.19-.24.28-.37.1-.13.2-.26.3-.38.1-.13.2-.25.3-.37l.24-.3c.1-.12.2-.24.29-.36.06-.08.12-.15.19-.23.1-.12.19-.24.28-.34.02-.03.04-.05.06-.07.22-.26.41-.49.59-.7.02-.03.05-.06.07-.09.02-.02.04-.05.06-.07.44-.5 1.38-1.28-.82-1.26-1.03.12-2.06.23-3.06.36 0 0-6.91.33-7.48.99 0 0-.04.05-.06.07-.02.03-.05.06-.07.09-.18.2-.37.44-.59.7-.02.03-.04.05-.06.07l-.28.34c-.06.07-.12.15-.19.23-.09.12-.19.24-.29.36-.08.1-.16.19-.24.3-.1.12-.19.24-.3.37-.1.12-.2.25-.3.38-.09.12-.19.24-.28.37-.18.24-.37.49-.57.75-.06.09-.13.18-.2.27-.17.23-.35.46-.52.71l-.24.33c-.16.22-.32.45-.49.68-.08.12-.17.24-.26.36-.18.25-.36.51-.54.77-.08.11-.15.22-.23.33-.22.32-.44.65-.67.99l-.07.1c-.29.43-.58.87-.88 1.33l-.02.03c-.28.43-.56.87-.85 1.33-.06.09-.11.18-.17.27Z"/><path fill="#4B1146" d="M330.089 219.74v-.02c-.33-.54-.64-1.06-.95-1.56-.02-.04-.05-.08-.07-.12-.3-.5-.6-.99-.9-1.46l-.02-.03c-.93-1.49-1.83-2.84-2.66-4.05-.01-.02-.02-.03-.03-.05-.26-.38-.52-.75-.77-1.1l-.06-.09a96.534 96.534 0 0 0-2.79-3.74c-.02-.03-.04-.05-.06-.08-.18-.23-.35-.44-.52-.64l-.05-.07c-1.42-1.74-8.84-2.61-8.84-2.61-20.68-2.5-48.32-4.03-78.71-4.03-30.39 0-58.03 1.53-78.71 4.03 0 0-6.91.33-7.48.99 0 0-.04.05-.06.07-.02.03-.05.06-.07.09-.18.2-.37.44-.59.7-.02.03-.04.05-.06.07l-.28.34c-.06.07-.12.15-.19.23-.09.12-.19.24-.29.36-.08.1-.16.19-.24.3-.1.12-.19.24-.3.37-.1.12-.2.25-.3.38-.09.12-.19.24-.28.37-.18.24-.37.49-.57.75-.07.09-.13.18-.2.27-.17.23-.34.46-.52.71l-.24.33c-.16.22-.32.45-.49.68-.08.12-.17.24-.25.36-.18.25-.36.51-.54.77-.08.11-.15.22-.23.33-.23.34-.47.69-.71 1.05-.03.04-.06.08-.09.13-.29.43-.58.87-.88 1.33l-.02.03c-.28.43-.56.88-.85 1.33-.06.09-.11.18-.17.27-.25.39-.49.79-.75 1.21-.06.1-.12.21-.19.31-.26.43-.53.88-.79 1.33-.05.08-.09.15-.13.23-.64 1.09-1.3 2.24-1.96 3.45l-.02.03c-10.89 19.89-24.05 55.55-20.54 108.27 3.25 48.72 27.58 71.29 55.54 81.71 1.44 11.28 4.83 19.89 11.34 22.64 9.76 4.12 19.32-9.33 22.85-15.06 10.54 1.1 20.61 1.29 29.27 1.29s18.72-.18 29.25-1.28c3.53 5.73 13.09 19.19 22.85 15.06 6.5-2.75 9.89-11.36 11.33-22.63 27.96-10.42 52.29-32.99 55.54-81.71 3.73-56.02-11.35-92.76-22.55-111.81v-.03Z"/><path fill="#4B1146" d="M345.259 210.87c-3.39-5.54-7.01-10.76-11.07-15.85-5.12-6.41-13.94-7.44-21.49-8.42-12.24-1.59-24.61-2.4-36.93-3.04-30.87-1.59-61.92-1.45-92.77.49-7.75.49-15.49 1.13-23.22 1.95-2.37.25-4.73.52-7.11.7-4.45.32-10.29.44-14.07 3.24l4.2-1.77c-7.6 1.9-12.47 10.07-16.57 16.07-2.64 3.86-5.01 7.91-7.2 12.05-4.63 8.74-8.46 17.97-11.65 27.33-8.51 25.01-9.98 50.01-9.23 76.33.71 24.75 3.61 52.62 18.1 73.31 6.65 9.5 14.39 17.1 23.74 23.92 7.76 5.66 16.59 9.66 25.55 13.03-4.3-5.65-8.6-11.29-12.9-16.94 1.18 8.82 2.65 13.48 6.91 21.44 1.69 3.16 4.04 6.24 6.79 8.55 1.75 1.46 3.75 3.13 5.85 4.2 4.33 2.21 6.96 2.72 11.7 3.29 9.14 1.1 17.85-.86 24.33-6.68 4.5-4.04 8.18-9.23 11.35-14.35-5.06 2.9-10.11 5.8-15.17 8.7 19.3 1.97 39.23 1.97 58.53 0-5.06-2.9-10.11-5.8-15.17-8.7 7.47 12.03 19.53 22.01 35.1 21.1 10.63-.62 19.14-6.61 24.6-15.56 4.71-7.72 6.05-13.22 7.22-21.98-4.3 5.65-8.6 11.29-12.9 16.94 9.69-3.64 19.04-8.04 27.3-14.34 9.84-7.5 18.07-16.06 24.64-26.63 15.13-24.33 13.97-76.68 13.15-104.65-.97-33.19-4.69-44.85-21.6-73.71-4.83-8.25-15.77-11.15-24.04-6.3-8.25 4.83-11.15 15.77-6.3 24.04 3.28 5.6 6.15 11.42 8.67 17.39l-1.77-4.2c6.29 15.03 10.3 30.9 12.49 47.03l-.63-4.67c2.5 18.91 2.91 38.51.37 57.44l.63-4.67c-1.32 9.43-3.6 18.69-7.29 27.49l1.77-4.2c-2.77 6.47-6.26 12.58-10.56 18.15l2.75-3.56a77.52 77.52 0 0 1-13.57 13.46l3.56-2.75c-5.88 4.48-12.33 8.11-19.14 10.99l4.2-1.77c-1.31.55-2.64 1.07-3.97 1.57-2.98.83-5.56 2.34-7.75 4.52-3.63 3.63-4.5 7.55-5.15 12.42l-.12.86.63-4.67c-.63 4.36-1.55 8.66-3.24 12.73l1.77-4.2c-.78 1.75-1.68 3.4-2.83 4.93.92-1.18 1.83-2.37 2.75-3.56-.72.89-1.49 1.7-2.37 2.43 1.18-.92 2.37-1.83 3.56-2.75-.87.67-1.78 1.22-2.78 1.67l4.2-1.77c-.77.3-1.52.52-2.34.67l4.67-.63c-.98.12-1.91.11-2.88 0l4.67.63c-.97-.17-1.88-.43-2.81-.78l4.2 1.77c-1.53-.66-2.91-1.5-4.25-2.5l3.56 2.75c-2.54-1.99-4.71-4.33-6.71-6.86l2.75 3.56c-1.39-1.8-2.68-3.66-3.87-5.59-3.03-4.88-9.07-9.32-15.17-8.7-19.3 1.97-39.23 1.97-58.53 0-6.1-.62-12.14 3.82-15.17 8.7-1.2 1.93-2.49 3.79-3.87 5.59.91-1.18 1.83-2.37 2.75-3.56-1.99 2.53-4.17 4.87-6.71 6.86l3.56-2.75c-1.33.99-2.72 1.84-4.25 2.5l4.2-1.77c-.92.35-1.83.61-2.81.78l4.67-.63c-.98.11-1.91.12-2.88 0l4.67.63c-.81-.15-1.57-.37-2.34-.67l4.2 1.77c-1.01-.45-1.91-1-2.79-1.67l3.56 2.75a17.09 17.09 0 0 1-2.37-2.44l2.75 3.56c-1.15-1.53-2.05-3.18-2.83-4.93l1.77 4.2c-1.69-4.08-2.61-8.38-3.24-12.73l.63 4.67-.12-.86c0-3.17-.81-6.13-2.4-8.87-2.47-4.22-6.06-6.41-10.5-8.07-1.33-.5-2.65-1.02-3.97-1.57l4.2 1.77c-6.8-2.89-13.25-6.51-19.14-10.99 1.18.92 2.37 1.83 3.56 2.75a77.178 77.178 0 0 1-13.57-13.46c.91 1.19 1.83 2.37 2.75 3.56-4.3-5.57-7.8-11.68-10.56-18.15l1.77 4.2c-3.68-8.8-5.97-18.06-7.29-27.49l.63 4.67c-2.54-19-2.13-38.66.4-57.64l-.63 4.67c2.21-16.17 6.26-32.08 12.6-47.13l-1.77 4.2c4.27-10.05 9.51-19.73 16.13-28.44l-2.75 3.56c.87-1.11 1.75-2.21 2.67-3.28-2.58 1.51-5.17 3.01-7.75 4.52 5.4-1.35 2.78-1.19 4.52-1.95l-4.2 1.77c.61-.19 1.24-.28 1.87-.37l-4.67.63c25.85-3.21 52.06-4.26 78.08-4.45 28.23-.2 56.73.53 84.77 4.03.06 0 .12.02.19.02l-4.67-.63c2.32.31 4.66.73 6.86 1.55l-4.2-1.77c.51.22.98.45 1.42.79l-3.56-2.75c.46.47.85 1.02 1.26 1.54l-2.75-3.56c2.88 3.74 5.39 7.67 7.85 11.69"/><path fill="#FCD0AD" d="M330.089 219.74v-.02c-.33-.54-.64-1.06-.95-1.56-.02-.04-.05-.08-.07-.12-.3-.5-.6-.99-.9-1.46l-.02-.03c-.93-1.49-1.83-2.84-2.66-4.05-.01-.02-.02-.03-.03-.05-.26-.38-.52-.75-.77-1.1l-.06-.09a96.534 96.534 0 0 0-2.79-3.74c-.02-.03-.04-.05-.06-.08-.18-.23-.35-.44-.52-.64l-.05-.07c-1.42-1.74-8.84-2.61-8.84-2.61-20.68-2.5-48.32-4.03-78.71-4.03-30.39 0-58.03 1.53-78.71 4.03 0 0-6.91.33-7.48.99 0 0-.04.05-.06.07-.02.03-.05.06-.07.09-.18.2-.37.44-.59.7-.02.03-.04.05-.06.07l-.28.34c-.06.07-.12.15-.19.23-.09.12-.19.24-.29.36-.08.1-.16.19-.24.3-.1.12-.19.24-.3.37-.1.12-.2.25-.3.38-.09.12-.19.24-.28.37-.18.24-.37.49-.57.75-.07.09-.13.18-.2.27-.17.23-.34.46-.52.71l-.24.33c-.16.22-.32.45-.49.68-.08.12-.17.24-.25.36-.18.25-.36.51-.54.77-.08.11-.15.22-.23.33-.23.34-.47.69-.71 1.05-.03.04-.06.08-.09.13-.29.43-.58.87-.88 1.33l-.02.03c-.28.43-.56.88-.85 1.33-.06.09-.11.18-.17.27-.25.39-.49.79-.75 1.21-.06.1-.12.21-.19.31-.26.43-.53.88-.79 1.33-.05.08-.09.15-.13.23-.64 1.09-1.3 2.24-1.96 3.45l-.02.03c-10.89 19.89-24.05 55.55-20.54 108.27 3.25 48.72 20.35 72.63 48.3 83.05 5.32 11.56 12.71 20.25 19.21 23 9.76 4.12 21.34-14.42 24.88-20.15 10.54 1.1 22.57 7.83 54.09-1.03 3.53 5.73 14.7 23.77 24.46 19.64 6.5-2.75 15.13-11.3 16.58-22.57 27.96-10.42 47.21-33.21 50.46-81.94 3.73-56.02-11.35-92.76-22.55-111.81l-.01-.01Z"/><path fill="#4B1146" d="M197.499 243.88c-.33-13.13-8.84-24.42-21.38-28.39-12.74-4.04-26.54 1.67-33.82 12.52-7.46 11.13-5.71 26.05 2.73 36.03 8.66 10.24 23.45 12.6 35.37 7.25 10.5-4.71 16.94-15.78 17.11-27.07 0-.12 0-.23-.01-.34Z"/><path fill="#fff" fill-rule="evenodd" d="M185.479 234.14c0 2.87-2.33 5.19-5.19 5.19-2.86 0-5.19-2.33-5.19-5.19 0-2.86 2.33-5.19 5.19-5.19 2.86 0 5.19 2.33 5.19 5.19Z" clip-rule="evenodd"/><path fill="#F0719B" d="M162.239 284.66c1 4.53-5.92 9.92-15.46 12.04-9.54 2.11-18.09.15-19.09-4.39-1-4.53 5.92-9.92 15.46-12.04 9.54-2.11 18.09-.15 19.1 4.39h-.01Z"/><path fill="#4B1146" d="M329.529 243.89c-.33-13.13-8.84-24.42-21.38-28.4-12.73-4.04-26.54 1.67-33.82 12.52-7.46 11.13-5.71 26.05 2.73 36.03 8.66 10.24 23.45 12.6 35.37 7.25 10.5-4.71 16.94-15.78 17.11-27.07 0-.12 0-.23-.01-.34v.01Z"/><path fill="#fff" fill-rule="evenodd" d="M317.509 234.14c0 2.87-2.33 5.19-5.19 5.19-2.86 0-5.19-2.33-5.19-5.19 0-2.86 2.33-5.19 5.19-5.19 2.86 0 5.19 2.33 5.19 5.19Z" clip-rule="evenodd"/><path fill="#F0719B" d="M304.849 284.66c-1 4.53 5.92 9.92 15.46 12.04 9.54 2.11 18.09.15 19.1-4.39 1-4.53-5.92-9.92-15.46-12.04-9.54-2.11-18.09-.15-19.1 4.39Z"/><path fill="#4B1146" d="M252.109 248.46c-2.6-.54-4.69 1.01-5.58 2.97-.16.12-.28.27-.33.47-.14.54-.26 1.05-.44 1.57-.35.56-.93 1.18-1.25 1.79-.56.43-1.15 1.05-1.56 1.48-2.88 1.73-6.14 2.39-9.62 2.5-2.17.07-4.33-.05-6.45-.49-1.69-.35-2.9-1.14-4.38-1.77-.41-.43-.93-.84-1.42-1.19-.29-.53-.7-1.05-1.05-1.57-.28-.75-.55-1.45-.72-2.24a.878.878 0 0 0-.21-.42c-.69-1.87-2.06-3.09-4.68-3.35-2.95-.3-5.19 1.72-5.33 4.17-.01.08-.02.16-.01.24 1.25 14.83 21.84 18.44 34.95 13.76 6.06-2.16 10.89-6.39 12.19-12.15.63-2.79-.87-5.11-4.11-5.78v.01Z"/><path fill="#4B1146" d="M252.459 247.38c-7.39-1.02-6.63 6.7-11.62 9.17-3.33 1.65-7.5 1.74-11.21 1.48-4.5-.32-8.06-2.39-9.07-6.34-1.11-4.33-6.97-5.91-10.75-3.22-3.72 2.65-1.51 8.21.29 11.22 4.36 7.3 14.68 9.93 23.42 9.73 10.31-.24 20.98-4.92 23.8-14.24 1.09-3.6-.75-6.77-4.85-7.8-1.59-.4-2.27 1.78-.68 2.18 6.78 1.7 1.5 9.29-1.5 11.98-3.46 3.09-8.3 4.63-13.07 5.33-8.12 1.2-17.68-.49-23.25-6.15-2.36-2.4-6.14-9.43-1.25-11.23 4-1.48 5.23 2.73 6.09 5.04.7 1.89 2.6 3.19 4.48 4.1 5.02 2.42 11.72 2.29 17.02.61 2.37-.75 4.47-2.04 5.72-4 1.35-2.13 2.03-6.18 5.77-5.67 1.62.22 2.31-1.95.68-2.18l-.02-.01ZM215.658 278.269l-14.265 14.485 34.001 33.483 14.265-14.485-34.001-33.483Z"/><path fill="#4B1146" d="M102.569 181.18c-30.37 30.83-29.98 80.45.85 110.82 30.83 30.37 80.45 29.99 110.81-.85 30.37-30.83 29.99-80.45-.85-110.81-30.83-30.37-80.45-29.99-110.82.85l.01-.01Zm105.97 104.36c-27.27 27.69-71.82 28.03-99.51.76-27.69-27.27-28.03-71.82-.76-99.51 27.27-27.69 71.82-28.03 99.51-.76 27.69 27.27 28.03 71.82.76 99.51Z"/><path fill="#6FCDE5" d="M207.779 186.03c27.69 27.27 28.03 71.82.76 99.51-27.27 27.69-71.82 28.03-99.51.76-27.69-27.27-28.03-71.82-.76-99.51 27.27-27.69 71.82-28.03 99.51-.76Z" opacity=".5"/><path fill="#fff" d="M171.229 191.53c1 6.57-3.51 12.72-10.08 13.72l-17.46 2.67c-6.57 1.01-12.71-3.51-13.72-10.08-1-6.58 3.51-12.72 10.08-13.72l17.45-2.67c6.57-1.01 12.72 3.51 13.72 10.08h.01ZM172.809 283.47c.5 3.28-1.76 6.36-5.04 6.86l-8.73 1.33c-3.28.5-6.36-1.75-6.86-5.04a6.015 6.015 0 0 1 5.04-6.86l8.73-1.34c3.29-.5 6.36 1.75 6.86 5.04v.01Z"/><path fill="#FCD0AD" d="M150.659 333.84s18.25 6.84 17.84 15.56c-.4 8.72-17.84 6.31-17.84 6.31v-21.87Z"/><path fill="#4B1146" d="M177.569 345.33c-.63-3.36-2.93-6.51-5.17-8.96-3.46-3.78-8.19-6.61-12.77-8.84-1.56-.76-3.16-1.47-4.77-2.13-.46-.22-.93-.41-1.42-.56-.05-.02-.09-.04-.14-.05-.91-.34-1.84-.48-2.76-.45 0 0-3.82.72-4.09 4.41-.27 3.69 4.09 5.1 4.09 5.1s18.25 6.84 17.84 15.56c-.4 8.72-17.84 6.31-17.84 6.31s-3.98.98-3.89 4.38c.09 3.4 3.89 4.95 3.89 4.95 2.52.29 5.04.44 7.6.3 2.71-.16 5.54-.47 8.13-1.35 1.52-.51 3.07-1.13 4.43-1.99 2.3-1.44 3.41-2.79 5.03-4.89 2.53-3.28 2.57-7.95 1.85-11.8l-.01.01ZM236.17 292.6l-19.955 19.954a6.27 6.27 0 0 0 0 8.868l67.246 67.245a6.27 6.27 0 0 0 8.867 0l19.955-19.954a6.27 6.27 0 0 0 0-8.867L245.037 292.6a6.27 6.27 0 0 0-8.867 0Z"/><path fill="#FCD0AD" d="M293.159 313.93s-12.61 14.86-8.01 22.28c4.6 7.42 18.66-3.18 18.66-3.18l-10.65-19.1Z"/><path fill="#4B1146" d="M275.239 337.05c-1.08-3.24-.61-7.11.15-10.35 1.18-4.98 3.93-9.76 6.85-13.93 1-1.42 2.04-2.82 3.13-4.18.29-.42.62-.81.97-1.18l.09-.12a7.14 7.14 0 0 1 2.19-1.74s3.69-1.23 5.72 1.86-1.09 6.45-1.09 6.45-12.61 14.86-8.01 22.28c4.6 7.42 18.66-3.18 18.66-3.18s3.96-1.08 5.53 1.93c1.58 3.01-.99 6.22-.99 6.22-2.07 1.48-4.18 2.84-6.5 3.96-2.45 1.18-5.07 2.28-7.75 2.78-1.58.29-3.23.51-4.84.42-2.71-.14-4.34-.78-6.77-1.82-3.81-1.63-6.12-5.7-7.36-9.41l.02.01Z"/><rect width="516" height="229" x="1810.5" y="111.5" fill="#fff" fill-opacity=".1" rx="72.5"/><path fill="#fff" d="M1886.76 280.5V171.409h41.76c7.88 0 14.44 1.243 19.66 3.729 5.25 2.45 9.18 5.806 11.77 10.067 2.63 4.262 3.94 9.091 3.94 14.489 0 4.439-.85 8.239-2.56 11.399-1.7 3.125-3.99 5.664-6.87 7.617-2.87 1.953-6.09 3.356-9.64 4.208v1.066c3.87.213 7.58 1.402 11.13 3.569 3.59 2.13 6.52 5.149 8.79 9.055 2.28 3.906 3.41 8.629 3.41 14.169 0 5.646-1.37 10.724-4.1 15.234-2.73 4.475-6.85 8.008-12.36 10.601-5.5 2.592-12.43 3.888-20.77 3.888h-44.16Zm19.76-16.513h21.26c7.17 0 12.34-1.367 15.5-4.101 3.19-2.77 4.79-6.321 4.79-10.654 0-3.231-.8-6.143-2.4-8.736-1.59-2.627-3.87-4.687-6.81-6.179-2.95-1.527-6.47-2.29-10.55-2.29h-21.79v31.96Zm0-46.182h19.55c3.41 0 6.48-.622 9.22-1.865 2.73-1.278 4.88-3.071 6.44-5.38 1.6-2.343 2.4-5.113 2.4-8.309 0-4.226-1.49-7.706-4.48-10.441-2.94-2.734-7.33-4.101-13.15-4.101h-19.98v30.096Zm78.82 62.695V171.409h70.96v16.566h-51.19v29.617h47.51v16.566h-47.51v29.776h51.61V280.5h-71.38Zm86.32-92.525v-16.566h87.04v16.566h-33.72V280.5h-19.6v-92.525h-33.72Zm104.65 92.525h-21.1l38.41-109.091h24.39l38.46 109.091h-21.09l-29.14-86.719h-.85l-29.08 86.719Zm.69-42.773h57.53V253.6H2177v-15.873Z"/><rect width="516" height="229" x="1810.5" y="111.5" stroke="#fff" stroke-width="17" rx="72.5"/></svg>